<svg xmlns="http://www.w3.org/2000/svg" viewBox="0 0 400 300" width="406" height="306" class="illustration styles_illustrationTablet__1DWOa"><g id="_308_kyoto_outline" data-name="#308_kyoto_outline"><path d="M292.93,150a93.22,93.22,0,0,1-39.52,76.05q-1.93,1.37-3.95,2.63c-.45.29-.9.57-1.36.84a93,93,0,0,1-96.2,0c-.46-.27-.91-.55-1.36-.84q-2-1.26-3.95-2.63A92.93,92.93,0,1,1,292.93,150Z" fill="#fff"></path><path d="M200,243.93a93.78,93.78,0,0,1-48.62-13.55c-.46-.27-.92-.56-1.38-.86-1.33-.83-2.68-1.73-4-2.65a93.72,93.72,0,1,1,108,0c-1.32.92-2.66,1.82-4,2.66-.45.29-.91.58-1.38.85A93.72,93.72,0,0,1,200,243.93Zm0-185.86a92,92,0,0,0-52.83,167.16c1.28.91,2.59,1.78,3.9,2.6.45.29.89.56,1.34.83a92,92,0,0,0,95.17,0c.46-.27.9-.54,1.34-.82,1.32-.83,2.63-1.7,3.91-2.61A91.93,91.93,0,0,0,200,58.07Z" fill="#093f68"></path><path d="M237.7,116c-5.26,2.06-37.7,1.6-37.7,1.6s-32.44.46-37.7-1.6-6.62-3.65-5.94-5.71,4.58.92,16.46-1.14S200,91.76,200,91.76s15.3,15.31,27.18,17.37,15.78-.91,16.46,1.14S243,113.93,237.7,116Z" fill="#093f68"></path><path d="M192.51,118.63c-10,0-26.77-.23-30.57-1.72-4.07-1.58-7.67-3.52-6.53-7,.56-1.67,2.14-1.52,4.33-1.31a44.27,44.27,0,0,0,12.91-.5c11.42-2,26.49-16.93,26.64-17.08a1,1,0,0,1,1.42,0c.15.15,15.22,15.1,26.64,17.08a44.27,44.27,0,0,0,12.91.5c2.19-.21,3.77-.36,4.33,1.31,1.14,3.44-2.46,5.38-6.53,7-5.37,2.11-36.74,1.69-38.07,1.67C199.6,118.59,196.64,118.63,192.51,118.63Zm7.48-2c9,.13,33.18.1,37.34-1.53h0c6-2.36,5.61-3.68,5.35-4.47a7.4,7.4,0,0,0-2.24,0,46.16,46.16,0,0,1-13.44-.51c-10.73-1.87-23.82-13.89-27-17-3.19,3.07-16.28,15.09-27,17a46.16,46.16,0,0,1-13.44.51,8,8,0,0,0-2.26-.06c-.24.8-.68,2.12,5.37,4.48C166.83,116.68,191,116.71,200,116.58Z" fill="#093f68"></path><path d="M243.8,149.33c-5.26,1.67-8.62.91-15.32.91h-57c-6.71,0-10.06.76-15.32-.91s-8.36-5-7.29-7.08,3.64-.61,11.86-.78,12.73-7.38,12.73-7.38h53s4.5,7.24,12.73,7.38,10.8-1.36,11.86.78S249.08,147.64,243.8,149.33Z" fill="#093f68"></path><path d="M163.61,151.41a23.68,23.68,0,0,1-7.72-1.13C152,149,149,146.84,148,144.59a3.24,3.24,0,0,1,0-2.79c.95-1.94,2.76-1.8,5.75-1.57a64.59,64.59,0,0,0,7,.24c7.57-.13,11.86-6.84,11.9-6.91a1,1,0,0,1,.85-.47h53a1,1,0,0,1,.85.47c0,.07,4.33,6.78,11.89,6.91a64.79,64.79,0,0,0,7-.24c3-.23,4.8-.37,5.76,1.58a3.28,3.28,0,0,1,0,2.79c-.94,2.25-4,4.43-7.88,5.68h0c-4,1.29-7,1.19-11,1.06-1.35-.05-2.88-.1-4.6-.1h-57c-1.73,0-3.25,0-4.6.1C165.74,151.38,164.65,151.41,163.61,151.41Zm-12.26-9.31c-1,0-1.33.16-1.54.6a1.3,1.3,0,0,0,0,1.12c.59,1.39,2.87,3.34,6.65,4.56s6.51,1.09,10.35,1c1.36-.05,2.91-.1,4.67-.1h57c1.76,0,3.31,0,4.67.1,3.84.13,6.62.22,10.35-1s6.06-3.16,6.65-4.56a1.34,1.34,0,0,0,0-1.12c-.34-.68-1-.69-3.82-.47a68,68,0,0,1-7.17.24c-7.51-.13-12-5.69-13.24-7.38H174c-1.2,1.69-5.73,7.25-13.24,7.38a68,68,0,0,1-7.17-.24C152.62,142.15,151.89,142.1,151.35,142.1Zm92.45,7.23h0Z" fill="#093f68"></path><path d="M257.81,186.87c-4.12,2.51-6.17,2.85-9.59,2.85H151.8c-3.44,0-5.49-.34-9.61-2.85s-7.64-9-6.39-10.5,6,2.16,15.53,0a25.74,25.74,0,0,0,14.28-8.8h68.78a25.74,25.74,0,0,0,14.28,8.8c9.48,2.16,14.28-1.5,15.53,0S261.91,184.35,257.81,186.87Z" fill="#093f68"></path><path d="M248.22,190.72H151.8c-3.67,0-5.89-.41-10.13-3-3.49-2.14-6.61-6.92-7.07-9.77a2.69,2.69,0,0,1,.43-2.23c.88-1,2.27-.76,4.18-.37a25.8,25.8,0,0,0,11.9,0A25,25,0,0,0,164.8,167a1,1,0,0,1,.81-.41h68.78a1,1,0,0,1,.81.41,25,25,0,0,0,13.69,8.41,25.8,25.8,0,0,0,11.9,0c1.92-.39,3.3-.67,4.18.38a2.66,2.66,0,0,1,.43,2.22c-.46,2.85-3.58,7.63-7.07,9.77h0C254.09,190.31,251.88,190.72,248.22,190.72ZM136.8,177a.56.56,0,0,0-.26,0c-.45.94,2.36,6.65,6.17,9,4,2.46,5.86,2.71,9.09,2.71h96.42c3.21,0,5.05-.25,9.07-2.71h0c3.81-2.34,6.62-8,6.13-9a9.45,9.45,0,0,0-2.24.32,27.85,27.85,0,0,1-12.73,0,26.86,26.86,0,0,1-14.55-8.77H166.1a26.86,26.86,0,0,1-14.55,8.77,28,28,0,0,1-12.73,0A14.37,14.37,0,0,0,136.8,177Zm121,9.88h0Z" fill="#093f68"></path><path d="M200,92.37a1,1,0,0,1-1-1V77.58a1,1,0,1,1,2,0V91.37A1,1,0,0,1,200,92.37Z" fill="#093f68"></path><rect x="173.79" y="117.29" width="52.43" height="16.8" fill="#68e1fd"></rect><path d="M226.21,135.09H173.79a1,1,0,0,1-1-1v-16.8a1,1,0,0,1,1-1h52.42a1,1,0,0,1,1,1v16.8A1,1,0,0,1,226.21,135.09Zm-51.42-2h50.42v-14.8H174.79Z" fill="#093f68"></path><rect x="165.61" y="150.78" width="68.79" height="16.8" fill="#68e1fd"></rect><path d="M234.39,168.57H165.61a1,1,0,0,1-1-1V150.78a1,1,0,0,1,1-1h68.78a1,1,0,0,1,1,1v16.79A1,1,0,0,1,234.39,168.57Zm-67.78-2h66.78V151.78H166.61Z" fill="#093f68"></path><rect x="156.2" y="189.72" width="87.61" height="16.65" fill="#68e1fd"></rect><path d="M243.8,207.37H156.2a1,1,0,0,1-1-1V189.72a1,1,0,0,1,1-1h87.6a1,1,0,0,1,1,1v16.65A1,1,0,0,1,243.8,207.37Zm-86.6-2h85.6V190.72H157.2Z" fill="#093f68"></path><path d="M249.46,228.68c-.45.29-.9.57-1.36.84a93,93,0,0,1-96.2,0c-.46-.27-.91-.55-1.36-.84Z" fill="#68e1fd"></path><path d="M200,243.93a93.78,93.78,0,0,1-48.62-13.55c-.46-.27-.92-.56-1.38-.86a1,1,0,0,1,.54-1.84h98.92a1,1,0,0,1,.54,1.84c-.46.3-.92.59-1.39.86A93.72,93.72,0,0,1,200,243.93Zm-45.87-14.25a92,92,0,0,0,91.74,0Z" fill="#093f68"></path><path d="M265.09,216.3a92.31,92.31,0,0,1-11.68,9.75q-1.93,1.37-3.95,2.63c-.45.29-.9.57-1.36.84H151.9c-.46-.27-.91-.55-1.36-.84q-2-1.26-3.95-2.63a92.31,92.31,0,0,1-11.68-9.75,27.77,27.77,0,0,0,6.37-.73,26.93,26.93,0,0,0,14.93-9.2h87.58a26.93,26.93,0,0,0,14.93,9.2A27.77,27.77,0,0,0,265.09,216.3Z" fill="#093f68"></path><path d="M248.1,230.52H151.9a1,1,0,0,1-.51-.14c-.47-.27-.93-.56-1.39-.86-1.33-.83-2.68-1.73-4-2.65a94,94,0,0,1-11.8-9.86,1,1,0,0,1,.7-1.71h.14a27,27,0,0,0,6-.7,26.23,26.23,0,0,0,14.34-8.82,1,1,0,0,1,.81-.41h87.58a1,1,0,0,1,.81.41,26.23,26.23,0,0,0,14.34,8.82,27,27,0,0,0,6,.7h.14a1,1,0,0,1,.7,1.71,94,94,0,0,1-11.8,9.86c-1.32.92-2.66,1.82-4,2.66-.45.29-.91.58-1.38.85A1,1,0,0,1,248.1,230.52Zm-95.93-2h95.66l1.09-.68c1.32-.83,2.63-1.7,3.91-2.61a90.91,90.91,0,0,0,9.87-8,30.74,30.74,0,0,1-4.2-.67,28.1,28.1,0,0,1-15.2-9.17H156.7a28.1,28.1,0,0,1-15.2,9.17,30.74,30.74,0,0,1-4.2.67,92.12,92.12,0,0,0,9.87,8c1.28.91,2.59,1.78,3.9,2.6Z" fill="#093f68"></path><path d="M189.86,135.09a1,1,0,0,1-1-1V117.58a1,1,0,1,1,2,0v16.51A1,1,0,0,1,189.86,135.09Z" fill="#093f68"></path><path d="M210.14,135.09a1,1,0,0,1-1-1V117.58a1,1,0,1,1,2,0v16.51A1,1,0,0,1,210.14,135.09Z" fill="#093f68"></path><path d="M180.17,168.43a1,1,0,0,1-1-1V150.92a1,1,0,0,1,2,0v16.51A1,1,0,0,1,180.17,168.43Z" fill="#093f68"></path><path d="M200,168.43a1,1,0,0,1-1-1V150.92a1,1,0,1,1,2,0v16.51A1,1,0,0,1,200,168.43Z" fill="#093f68"></path><path d="M219.83,168.43a1,1,0,0,1-1-1V150.92a1,1,0,0,1,2,0v16.51A1,1,0,0,1,219.83,168.43Z" fill="#093f68"></path><path d="M171.47,207.37a1,1,0,0,1-1-1v-16.5a1,1,0,0,1,2,0v16.5A1,1,0,0,1,171.47,207.37Z" fill="#093f68"></path><path d="M190.49,207.37a1,1,0,0,1-1-1v-16.5a1,1,0,0,1,2,0v16.5A1,1,0,0,1,190.49,207.37Z" fill="#093f68"></path><path d="M209.51,207.37a1,1,0,0,1-1-1v-16.5a1,1,0,0,1,2,0v16.5A1,1,0,0,1,209.51,207.37Z" fill="#093f68"></path><path d="M228.53,207.37a1,1,0,0,1-1-1v-16.5a1,1,0,0,1,2,0v16.5A1,1,0,0,1,228.53,207.37Z" fill="#093f68"></path><path d="M242.53,170.3a1,1,0,0,1-.83-.44,1,1,0,0,1,.27-1.39l16.94-11.28a16.13,16.13,0,0,1,4.4-2.31c3.88-1.13,7.78.51,11.42,2.45l2.18,1.16c3.92,2.07,8.8,4.65,12,6.84a1,1,0,0,1,.26,1.38,1,1,0,0,1-1.39.27c-3.11-2.13-7.94-4.67-11.81-6.72l-2.19-1.16c-3.27-1.74-6.73-3.23-9.92-2.3a14.75,14.75,0,0,0-3.85,2l-16.94,11.29A1,1,0,0,1,242.53,170.3Z" fill="#dfeaef"></path><path d="M138.57,199.12a1,1,0,0,1-.76-.35c-.16-.18-15.81-18.26-25.36-25.24a1,1,0,0,1,1.18-1.62c8.94,6.54,22.59,22,25.25,25.05l11.34-3.79a1,1,0,1,1,.64,1.9l-12,4A1.12,1.12,0,0,1,138.57,199.12Z" fill="#dfeaef"></path><path d="M252.88,97.16H223.36c-3.51,0-6.35-2.31-6.35-5.15a5.17,5.17,0,0,1,3.6-4.64c.75-3.66,4.76-6.43,9.46-6.43a11.43,11.43,0,0,1,4.86,1,7.88,7.88,0,0,1,6.69-3.32c3.58,0,6.61,2,7.33,4.77a7.44,7.44,0,0,1,6.11,3.73c2.48.73,4.17,2.67,4.17,4.84C259.23,94.85,256.38,97.16,252.88,97.16ZM230.07,82.94c-4,0-7.29,2.31-7.56,5.27a1,1,0,0,1-.73.87c-1.66.47-2.77,1.65-2.77,2.93,0,1.74,2,3.15,4.35,3.15h29.52c2.4,0,4.35-1.41,4.35-3.15,0-1.37-1.28-2.61-3.11-3a1,1,0,0,1-.71-.63c-.67-1.74-2.84-3-5.29-3a1,1,0,0,1-1-.93c-.16-2.14-2.56-3.81-5.48-3.81-2.49,0-4.67,1.24-5.3,3a1,1,0,0,1-.61.6,1,1,0,0,1-.86-.08A9.11,9.11,0,0,0,230.07,82.94Z" fill="#dfeaef"></path><path d="M231.11,88.4a1,1,0,0,1-.76-1.65c5.12-6,10.64-1.88,10.7-1.84a1,1,0,0,1-1.21,1.6c-.42-.31-4.17-2.89-8,1.54A1,1,0,0,1,231.11,88.4Z" fill="#dfeaef"></path><path d="M151.24,132.76h-29c-3.45,0-6.25-2.27-6.25-5.07,0-2.14,1.66-4,4.09-4.77a7.32,7.32,0,0,1,6-3.66c.72-2.69,3.69-4.69,7.21-4.69a7.75,7.75,0,0,1,6.57,3.26,11.15,11.15,0,0,1,4.76-1c4.63,0,8.57,2.73,9.31,6.32a5.1,5.1,0,0,1,3.54,4.57C157.49,130.49,154.69,132.76,151.24,132.76ZM127,121.23c-2.42,0-4.54,1.19-5.19,2.9a1,1,0,0,1-.72.62c-1.79.39-3,1.6-3,2.94,0,1.69,1.9,3.07,4.25,3.07h29c2.34,0,4.25-1.38,4.25-3.07,0-1.25-1.09-2.4-2.71-2.86a1,1,0,0,1-.72-.87c-.28-2.89-3.53-5.16-7.42-5.16a9,9,0,0,0-4.68,1.25,1,1,0,0,1-1.46-.51c-.62-1.75-2.76-3-5.19-3-2.85,0-5.21,1.64-5.36,3.73a1,1,0,0,1-1,.93Zm-6.13,2.54h0Z" fill="#dfeaef"></path><path d="M141.58,124.67a1,1,0,0,1-1-.83,4.54,4.54,0,0,0-1.83-2.8,4.64,4.64,0,0,0-3.88-.14,1,1,0,1,1-.6-1.91,5.9,5.9,0,0,1,8.28,4.51,1,1,0,0,1-.82,1.15Z" fill="#dfeaef"></path><path d="M274.74,132.58H254.18c-2.61,0-4.73-1.75-4.73-3.89a3.87,3.87,0,0,1,2.55-3.45c.63-2.64,3.44-4.56,6.86-4.56a8.33,8.33,0,0,1,3.27.65,5.78,5.78,0,0,1,4.77-2.24,5.46,5.46,0,0,1,5.33,3.35,5.47,5.47,0,0,1,4.23,2.63,4,4,0,0,1,3,3.62C279.46,130.83,277.34,132.58,274.74,132.58Zm-15.88-9.9c-2.61,0-4.79,1.49-5,3.39a1,1,0,0,1-.72.87c-1,.3-1.72,1-1.72,1.75,0,1,1.25,1.89,2.73,1.89h20.56c1.47,0,2.72-.87,2.72-1.89,0-.81-.79-1.55-1.92-1.8a1,1,0,0,1-.72-.62,3.52,3.52,0,0,0-3.37-1.87h0a1,1,0,0,1-1-.93c-.1-1.31-1.67-2.38-3.51-2.38a3.57,3.57,0,0,0-3.41,1.91,1,1,0,0,1-1.46.52A6.13,6.13,0,0,0,258.86,122.68Z" fill="#dfeaef"></path><path d="M265.66,127.64a1,1,0,0,1-1-.94c-.13-2-2.5-3.11-2.52-3.12a1,1,0,0,1,.81-1.83c.14.07,3.5,1.59,3.71,4.82a1,1,0,0,1-.94,1.06Z" fill="#dfeaef"></path></g></svg>